# xmcd
#
# Track frame offsets:
# 150
# 20791
# 42311
# 57359
# 84313
#
# Disc length: 1389 seconds
#
#
# Revision: 2
# Processed by: cddbd v1.5.2PL0 Copyright (c) Steve Scherf et al.
# Submitted via: FreeRIP 2.944 
#
DISCID=3a056b05
DTITLE=P!nk - Dear Mr. President
DYEAR=2007
DGENRE=Pop
TTITLE0=Dear Mr. President
TTITLE1=Dear Mr. President -live-
TTITLE2=Leave me alone (I´m lonely)
TTITLE3=Who knew -live-
TTITLE4=Video
EXTD=YEAR: 2007
EXTT0=
EXTT1=
EXTT2=
EXTT3=
EXTT4=
PLAYORDER=
